{
    "accessors" : [
        {
            "bufferView" : 0, 
            "componentType" : 5123, 
            "count" : 10944, 
            "max" : [
                7295
            ], 
            "min" : [
                0
            ], 
            "type" : "SCALAR"
        }, 
        {
            "bufferView" : 1, 
            "componentType" : 5126, 
            "count" : 7296, 
            "max" : [
                0.6556215882301331, 
                1.8373397588729858, 
                0.5812350511550903
            ], 
            "min" : [
                -0.7227990627288818, 
                -0.00998985767364502, 
                -0.7971851825714111
            ], 
            "type" : "VEC3"
        }, 
        {
            "bufferView" : 2, 
            "componentType" : 5126, 
            "count" : 7296, 
            "max" : [
                0.9987294673919678, 
                1.0, 
                0.9958229660987854
            ], 
            "min" : [
                -0.9971795082092285, 
                -0.9990891814231873, 
                -0.9980886578559875
            ], 
            "type" : "VEC3"
        }, 
        {
            "bufferView" : 3, 
            "componentType" : 5126, 
            "count" : 7296, 
            "max" : [
                1.0, 
                0.9995044469833374, 
                0.9997078776359558, 
                1.0
            ], 
            "min" : [
                -0.9997762441635132, 
                -0.9992232322692871, 
                -0.9999310970306396, 
                1.0
            ], 
            "type" : "VEC4"
        }, 
        {
            "bufferView" : 4, 
            "componentType" : 5126, 
            "count" : 7296, 
            "max" : [
                0.9801523685455322, 
                0.9997342771675903
            ], 
            "min" : [
                0.000265722832409665, 
                0.005289912223815918
            ], 
            "type" : "VEC2"
        }
    ], 
    "asset" : {
        "generator" : "Khronos Blender glTF 2.0 exporter", 
        "version" : "2.0"
    }, 
    "bufferViews" : [
        {
            "buffer" : 0, 
            "byteLength" : 21888, 
            "byteOffset" : 0, 
            "target" : 34963
        }, 
        {
            "buffer" : 0, 
            "byteLength" : 87552, 
            "byteOffset" : 21888, 
            "target" : 34962
        }, 
        {
            "buffer" : 0, 
            "byteLength" : 87552, 
            "byteOffset" : 109440, 
            "target" : 34962
        }, 
        {
            "buffer" : 0, 
            "byteLength" : 116736, 
            "byteOffset" : 196992, 
            "target" : 34962
        }, 
        {
            "buffer" : 0, 
            "byteLength" : 58368, 
            "byteOffset" : 313728, 
            "target" : 34962
        }
    ], 
    "buffers" : [
        {
            "byteLength" : 372096, 
            "uri" : "BMbomb.bin"
        }
    ], 
    "images" : [
        {
            "uri" : "BMbomb.png"
        }
    ], 
    "materials" : [
        {
            "name" : "Material.001", 
            "pbrMetallicRoughness" : {
                "baseColorFactor" : [
                    0.6400000190734865, 
                    0.6400000190734865, 
                    0.6400000190734865, 
                    1.0
                ], 
                "baseColorTexture" : {
                    "index" : 0
                }, 
                "metallicFactor" : 0.0
            }
        }
    ], 
    "meshes" : [
        {
            "name" : "Sphere", 
            "primitives" : [
                {
                    "attributes" : {
                        "NORMAL" : 2, 
                        "POSITION" : 1, 
                        "TANGENT" : 3, 
                        "TEXCOORD_0" : 4
                    }, 
                    "indices" : 0, 
                    "material" : 0
                }
            ]
        }
    ], 
    "nodes" : [
        {
            "mesh" : 0, 
            "name" : "Sphere"
        }
    ], 
    "samplers" : [
        {}
    ], 
    "scene" : 0, 
    "scenes" : [
        {
            "name" : "Scene", 
            "nodes" : [
                0
            ]
        }
    ], 
    "textures" : [
        {
            "sampler" : 0, 
            "source" : 0
        }
    ]
}
