{
    "accessors" : [
        {
            "bufferView" : 0, 
            "componentType" : 5123, 
            "count" : 2880, 
            "max" : [
                1983
            ], 
            "min" : [
                0
            ], 
            "type" : "SCALAR"
        }, 
        {
            "bufferView" : 1, 
            "componentType" : 5126, 
            "count" : 1984, 
            "max" : [
                1.000000238418579, 
                1.0, 
                1.0000003576278687
            ], 
            "min" : [
                -0.9999998211860657, 
                -1.0, 
                -0.9999991655349731
            ], 
            "type" : "VEC3"
        }, 
        {
            "bufferView" : 2, 
            "componentType" : 5126, 
            "count" : 1984, 
            "max" : [
                0.9904382228851318, 
                0.99513840675354, 
                0.9904382824897766
            ], 
            "min" : [
                -0.9904382228851318, 
                -0.99513840675354, 
                -0.9904387593269348
            ], 
            "type" : "VEC3"
        }, 
        {
            "bufferView" : 3, 
            "componentType" : 5126, 
            "count" : 1984, 
            "max" : [
                0.9807546138763428, 
                0.9843068271875381
            ], 
            "min" : [
                0.01374363899230957, 
                0.013887226581573486
            ], 
            "type" : "VEC2"
        }
    ], 
    "asset" : {
        "generator" : "Khronos Blender glTF 2.0 exporter", 
        "version" : "2.0"
    }, 
    "bufferViews" : [
        {
            "buffer" : 0, 
            "byteLength" : 5760, 
            "byteOffset" : 0, 
            "target" : 34963
        }, 
        {
            "buffer" : 0, 
            "byteLength" : 23808, 
            "byteOffset" : 5760, 
            "target" : 34962
        }, 
        {
            "buffer" : 0, 
            "byteLength" : 23808, 
            "byteOffset" : 29568, 
            "target" : 34962
        }, 
        {
            "buffer" : 0, 
            "byteLength" : 15872, 
            "byteOffset" : 53376, 
            "target" : 34962
        }
    ], 
    "buffers" : [
        {
            "byteLength" : 69248, 
            "uri" : "BMextraflame.bin"
        }
    ], 
    "images" : [
        {
            "uri" : "BMextraflame.png"
        }
    ], 
    "materials" : [
        {
            "name" : "Material.001", 
            "pbrMetallicRoughness" : {
                "baseColorFactor" : [
                    0.6400000190734865, 
                    0.6400000190734865, 
                    0.6400000190734865, 
                    1.0
                ], 
                "baseColorTexture" : {
                    "index" : 0
                }, 
                "metallicFactor" : 0.0
            }
        }
    ], 
    "meshes" : [
        {
            "name" : "Sphere", 
            "primitives" : [
                {
                    "attributes" : {
                        "NORMAL" : 2, 
                        "POSITION" : 1, 
                        "TEXCOORD_0" : 3
                    }, 
                    "indices" : 0, 
                    "material" : 0
                }
            ]
        }
    ], 
    "nodes" : [
        {
            "mesh" : 0, 
            "name" : "Sphere", 
            "translation" : [
                0.0, 
                1.0373579263687134, 
                -0.0
            ]
        }
    ], 
    "samplers" : [
        {}
    ], 
    "scene" : 0, 
    "scenes" : [
        {
            "name" : "Scene", 
            "nodes" : [
                0
            ]
        }
    ], 
    "textures" : [
        {
            "sampler" : 0, 
            "source" : 0
        }
    ]
}
