{
    "accessors" : [
        {
            "bufferView" : 0, 
            "componentType" : 5123, 
            "count" : 384, 
            "max" : [
                206
            ], 
            "min" : [
                0
            ], 
            "type" : "SCALAR"
        }, 
        {
            "bufferView" : 1, 
            "componentType" : 5126, 
            "count" : 207, 
            "max" : [
                0.422252357006073, 
                1.701035499572754, 
                -0.10123097896575928
            ], 
            "min" : [
                0.08973336219787598, 
                1.3685166835784912, 
                -0.14678706228733063
            ], 
            "type" : "VEC3"
        }, 
        {
            "bufferView" : 2, 
            "componentType" : 5126, 
            "count" : 207, 
            "max" : [
                1.0, 
                1.0, 
                1.0
            ], 
            "min" : [
                -1.0, 
                -1.0, 
                -1.0
            ], 
            "type" : "VEC3"
        }, 
        {
            "bufferView" : 3, 
            "componentType" : 5126, 
            "count" : 207, 
            "max" : [
                0.7782198190689087, 
                0.9549613893032074
            ], 
            "min" : [
                0.06367944180965424, 
                0.06915390491485596
            ], 
            "type" : "VEC2"
        }, 
        {
            "bufferView" : 4, 
            "componentType" : 5123, 
            "count" : 10944, 
            "max" : [
                7239
            ], 
            "min" : [
                0
            ], 
            "type" : "SCALAR"
        }, 
        {
            "bufferView" : 5, 
            "componentType" : 5126, 
            "count" : 7240, 
            "max" : [
                0.34156736731529236, 
                1.6126998662948608, 
                0.2671070694923401
            ], 
            "min" : [
                -0.4091149568557739, 
                0.6066516637802124, 
                -0.4835749864578247
            ], 
            "type" : "VEC3"
        }, 
        {
            "bufferView" : 6, 
            "componentType" : 5126, 
            "count" : 7240, 
            "max" : [
                0.9987293481826782, 
                1.0, 
                0.9958229064941406
            ], 
            "min" : [
                -0.9971792101860046, 
                -0.999089241027832, 
                -0.9980886578559875
            ], 
            "type" : "VEC3"
        }, 
        {
            "bufferView" : 7, 
            "componentType" : 5126, 
            "count" : 7240, 
            "max" : [
                0.9801523685455322, 
                0.9997342771675903
            ], 
            "min" : [
                0.000265722832409665, 
                0.005289912223815918
            ], 
            "type" : "VEC2"
        }
    ], 
    "asset" : {
        "generator" : "Khronos Blender glTF 2.0 exporter", 
        "version" : "2.0"
    }, 
    "bufferViews" : [
        {
            "buffer" : 0, 
            "byteLength" : 768, 
            "byteOffset" : 0, 
            "target" : 34963
        }, 
        {
            "buffer" : 0, 
            "byteLength" : 2484, 
            "byteOffset" : 768, 
            "target" : 34962
        }, 
        {
            "buffer" : 0, 
            "byteLength" : 2484, 
            "byteOffset" : 3252, 
            "target" : 34962
        }, 
        {
            "buffer" : 0, 
            "byteLength" : 1656, 
            "byteOffset" : 5736, 
            "target" : 34962
        }, 
        {
            "buffer" : 0, 
            "byteLength" : 21888, 
            "byteOffset" : 7392, 
            "target" : 34963
        }, 
        {
            "buffer" : 0, 
            "byteLength" : 86880, 
            "byteOffset" : 29280, 
            "target" : 34962
        }, 
        {
            "buffer" : 0, 
            "byteLength" : 86880, 
            "byteOffset" : 116160, 
            "target" : 34962
        }, 
        {
            "buffer" : 0, 
            "byteLength" : 57920, 
            "byteOffset" : 203040, 
            "target" : 34962
        }
    ], 
    "buffers" : [
        {
            "byteLength" : 260960, 
            "uri" : "BMextrabombNEW.bin"
        }
    ], 
    "images" : [
        {
            "uri" : "BMextraflameNEW.png"
        }, 
        {
            "uri" : "BMbomb.png"
        }
    ], 
    "materials" : [
        {
            "name" : "Material", 
            "pbrMetallicRoughness" : {
                "baseColorFactor" : [
                    0.6400000190734865, 
                    0.6400000190734865, 
                    0.6400000190734865, 
                    1.0
                ], 
                "baseColorTexture" : {
                    "index" : 0
                }, 
                "metallicFactor" : 0.0
            }
        }, 
        {
            "name" : "Material.001", 
            "pbrMetallicRoughness" : {
                "baseColorFactor" : [
                    0.6400000190734865, 
                    0.6400000190734865, 
                    0.6400000190734865, 
                    1.0
                ], 
                "baseColorTexture" : {
                    "index" : 1
                }, 
                "metallicFactor" : 0.0
            }
        }
    ], 
    "meshes" : [
        {
            "name" : "Cube.001", 
            "primitives" : [
                {
                    "attributes" : {
                        "NORMAL" : 2, 
                        "POSITION" : 1, 
                        "TEXCOORD_0" : 3
                    }, 
                    "indices" : 0, 
                    "material" : 0
                }, 
                {
                    "attributes" : {
                        "NORMAL" : 6, 
                        "POSITION" : 5, 
                        "TEXCOORD_0" : 7
                    }, 
                    "indices" : 4, 
                    "material" : 1
                }
            ]
        }
    ], 
    "nodes" : [
        {
            "mesh" : 0, 
            "name" : "Cube"
        }
    ], 
    "samplers" : [
        {}
    ], 
    "scene" : 0, 
    "scenes" : [
        {
            "name" : "Scene", 
            "nodes" : [
                0
            ]
        }
    ], 
    "textures" : [
        {
            "sampler" : 0, 
            "source" : 0
        }, 
        {
            "sampler" : 0, 
            "source" : 1
        }
    ]
}
