{
    "accessors" : [
        {
            "bufferView" : 0, 
            "componentType" : 5123, 
            "count" : 384, 
            "max" : [
                206
            ], 
            "min" : [
                0
            ], 
            "type" : "SCALAR"
        }, 
        {
            "bufferView" : 1, 
            "componentType" : 5126, 
            "count" : 207, 
            "max" : [
                0.4292749762535095, 
                1.3291733264923096, 
                0.022780822589993477
            ], 
            "min" : [
                0.0967559665441513, 
                0.9966543912887573, 
                -0.022775262594223022
            ], 
            "type" : "VEC3"
        }, 
        {
            "bufferView" : 2, 
            "componentType" : 5126, 
            "count" : 207, 
            "max" : [
                1.0, 
                1.0, 
                1.0
            ], 
            "min" : [
                -1.0, 
                -1.0, 
                -1.0
            ], 
            "type" : "VEC3"
        }, 
        {
            "bufferView" : 3, 
            "componentType" : 5126, 
            "count" : 207, 
            "max" : [
                0.7782198190689087, 
                0.9549613893032074
            ], 
            "min" : [
                0.06367944180965424, 
                0.06915390491485596
            ], 
            "type" : "VEC2"
        }, 
        {
            "bufferView" : 4, 
            "componentType" : 5123, 
            "count" : 174, 
            "max" : [
                173
            ], 
            "min" : [
                0
            ], 
            "type" : "SCALAR"
        }, 
        {
            "bufferView" : 5, 
            "componentType" : 5126, 
            "count" : 174, 
            "max" : [
                0.16492614150047302, 
                0.9197053909301758, 
                0.17636655271053314
            ], 
            "min" : [
                -0.16954268515110016, 
                0.4406237304210663, 
                -0.169439896941185
            ], 
            "type" : "VEC3"
        }, 
        {
            "bufferView" : 6, 
            "componentType" : 5126, 
            "count" : 174, 
            "max" : [
                0.9824787974357605, 
                0.7789373993873596, 
                0.9358795285224915
            ], 
            "min" : [
                -0.9931145906448364, 
                -0.9535418152809143, 
                -0.9727949500083923
            ], 
            "type" : "VEC3"
        }, 
        {
            "bufferView" : 7, 
            "componentType" : 5126, 
            "count" : 174, 
            "max" : [
                0.8449444770812988, 
                0.9998464702803176
            ], 
            "min" : [
                0.00015352971968241036, 
                0.00015360116958618164
            ], 
            "type" : "VEC2"
        }
    ], 
    "asset" : {
        "generator" : "Khronos Blender glTF 2.0 exporter", 
        "version" : "2.0"
    }, 
    "bufferViews" : [
        {
            "buffer" : 0, 
            "byteLength" : 768, 
            "byteOffset" : 0, 
            "target" : 34963
        }, 
        {
            "buffer" : 0, 
            "byteLength" : 2484, 
            "byteOffset" : 768, 
            "target" : 34962
        }, 
        {
            "buffer" : 0, 
            "byteLength" : 2484, 
            "byteOffset" : 3252, 
            "target" : 34962
        }, 
        {
            "buffer" : 0, 
            "byteLength" : 1656, 
            "byteOffset" : 5736, 
            "target" : 34962
        }, 
        {
            "buffer" : 0, 
            "byteLength" : 348, 
            "byteOffset" : 7392, 
            "target" : 34963
        }, 
        {
            "buffer" : 0, 
            "byteLength" : 2088, 
            "byteOffset" : 7740, 
            "target" : 34962
        }, 
        {
            "buffer" : 0, 
            "byteLength" : 2088, 
            "byteOffset" : 9828, 
            "target" : 34962
        }, 
        {
            "buffer" : 0, 
            "byteLength" : 1392, 
            "byteOffset" : 11916, 
            "target" : 34962
        }
    ], 
    "buffers" : [
        {
            "byteLength" : 13308, 
            "uri" : "BMextraflame.bin"
        }
    ], 
    "images" : [
        {
            "uri" : "BMflame.png"
        }, 
        {
            "uri" : "BMextraNEW.png"
        }
    ], 
    "materials" : [
        {
            "name" : "????????.001", 
            "pbrMetallicRoughness" : {
                "baseColorFactor" : [
                    1.0, 
                    0.8794687390327454, 
                    0.9068582653999329, 
                    1.0
                ], 
                "baseColorTexture" : {
                    "index" : 0
                }, 
                "metallicFactor" : 0.0
            }
        }, 
        {
            "name" : "Material.001", 
            "pbrMetallicRoughness" : {
                "baseColorFactor" : [
                    0.6400000190734865, 
                    0.6400000190734865, 
                    0.6400000190734865, 
                    1.0
                ], 
                "baseColorTexture" : {
                    "index" : 1
                }, 
                "metallicFactor" : 0.0
            }
        }
    ], 
    "meshes" : [
        {
            "name" : "?????", 
            "primitives" : [
                {
                    "attributes" : {
                        "NORMAL" : 2, 
                        "POSITION" : 1, 
                        "TEXCOORD_0" : 3
                    }, 
                    "indices" : 0, 
                    "material" : 1
                }, 
                {
                    "attributes" : {
                        "NORMAL" : 6, 
                        "POSITION" : 5, 
                        "TEXCOORD_0" : 7
                    }, 
                    "indices" : 4, 
                    "material" : 0
                }
            ]
        }
    ], 
    "nodes" : [
        {
            "mesh" : 0, 
            "name" : "?????"
        }
    ], 
    "samplers" : [
        {}
    ], 
    "scene" : 0, 
    "scenes" : [
        {
            "name" : "Scene", 
            "nodes" : [
                0
            ]
        }
    ], 
    "textures" : [
        {
            "sampler" : 0, 
            "source" : 0
        }, 
        {
            "sampler" : 0, 
            "source" : 1
        }
    ]
}
