{
    "accessors" : [
        {
            "bufferView" : 0, 
            "componentType" : 5123, 
            "count" : 174, 
            "max" : [
                173
            ], 
            "min" : [
                0
            ], 
            "type" : "SCALAR"
        }, 
        {
            "bufferView" : 1, 
            "componentType" : 5126, 
            "count" : 174, 
            "max" : [
                0.6317018866539001, 
                1.8698571920394897, 
                0.6755210757255554
            ], 
            "min" : [
                -0.6493842601776123, 
                0.03487340733408928, 
                -0.6489905118942261
            ], 
            "type" : "VEC3"
        }, 
        {
            "bufferView" : 2, 
            "componentType" : 5126, 
            "count" : 174, 
            "max" : [
                0.9824787974357605, 
                0.7789372801780701, 
                0.9358794689178467
            ], 
            "min" : [
                -0.9931145906448364, 
                -0.9535418748855591, 
                -0.9727949500083923
            ], 
            "type" : "VEC3"
        }, 
        {
            "bufferView" : 3, 
            "componentType" : 5126, 
            "count" : 174, 
            "max" : [
                0.8449444770812988, 
                0.9998464702803176
            ], 
            "min" : [
                0.00015352971968241036, 
                0.00015360116958618164
            ], 
            "type" : "VEC2"
        }
    ], 
    "asset" : {
        "generator" : "Khronos Blender glTF 2.0 exporter", 
        "version" : "2.0"
    }, 
    "bufferViews" : [
        {
            "buffer" : 0, 
            "byteLength" : 348, 
            "byteOffset" : 0, 
            "target" : 34963
        }, 
        {
            "buffer" : 0, 
            "byteLength" : 2088, 
            "byteOffset" : 348, 
            "target" : 34962
        }, 
        {
            "buffer" : 0, 
            "byteLength" : 2088, 
            "byteOffset" : 2436, 
            "target" : 34962
        }, 
        {
            "buffer" : 0, 
            "byteLength" : 1392, 
            "byteOffset" : 4524, 
            "target" : 34962
        }
    ], 
    "buffers" : [
        {
            "byteLength" : 5916, 
            "uri" : "BMflame.bin"
        }
    ], 
    "images" : [
        {
            "uri" : "BMflame.png"
        }
    ], 
    "materials" : [
        {
            "name" : "????????.001", 
            "pbrMetallicRoughness" : {
                "baseColorFactor" : [
                    1.0, 
                    0.8794687390327454, 
                    0.9068582653999329, 
                    1.0
                ], 
                "baseColorTexture" : {
                    "index" : 0
                }, 
                "metallicFactor" : 0.0
            }
        }
    ], 
    "meshes" : [
        {
            "name" : "?????", 
            "primitives" : [
                {
                    "attributes" : {
                        "NORMAL" : 2, 
                        "POSITION" : 1, 
                        "TEXCOORD_0" : 3
                    }, 
                    "indices" : 0, 
                    "material" : 0
                }
            ]
        }
    ], 
    "nodes" : [
        {
            "mesh" : 0, 
            "name" : "?????"
        }
    ], 
    "samplers" : [
        {}
    ], 
    "scene" : 0, 
    "scenes" : [
        {
            "name" : "Scene", 
            "nodes" : [
                0
            ]
        }
    ], 
    "textures" : [
        {
            "sampler" : 0, 
            "source" : 0
        }
    ]
}
