{"accessors":[{"bufferView":2,"componentType":5126,"count":300,"max":[1,1.1437109708786011,1],"min":[-1,-1.0000009536743164,-1],"type":"VEC3"},{"bufferView":2,"byteOffset":3600,"componentType":5126,"count":300,"max":[1,1,1],"min":[-1,-1,-1],"type":"VEC3"},{"bufferView":1,"componentType":5126,"count":300,"max":[2.25,2.25],"min":[-1.25,-1.25],"type":"VEC2"},{"bufferView":1,"byteOffset":2400,"componentType":5126,"count":300,"max":[0.59053099155426025,0.99632799625396729],"min":[0.0034600000362843275,0.069920003414154053],"type":"VEC2"},{"bufferView":3,"componentType":5126,"count":300,"max":[1,1,1.3421642506727949e-05,1],"min":[-0.40110915899276733,-3.4367144507996272e-06,-6.0805668908869848e-05,-1],"type":"VEC4"},{"bufferView":0,"componentType":5125,"count":468,"max":[299],"min":[0],"type":"SCALAR"},{"bufferView":2,"byteOffset":7200,"componentType":5126,"count":280,"max":[1.3370809555053711,0.14386700093746185,0.86950302124023438],"min":[-0.025248000398278236,-0.21327400207519531,-0.90304601192474365],"type":"VEC3"},{"bufferView":2,"byteOffset":10560,"componentType":5126,"count":280,"max":[1,1,1],"min":[-1,-1,-1],"type":"VEC3"},{"bufferView":1,"byteOffset":4800,"componentType":5126,"count":280,"max":[1,2.0192511081695557],"min":[-1,-1.0370559692382812],"type":"VEC2"},{"bufferView":1,"byteOffset":7040,"componentType":5126,"count":280,"max":[0.98198497295379639,0.99481397867202759],"min":[0.0025770000647753477,0.0069120000116527081],"type":"VEC2"},{"bufferView":3,"byteOffset":4800,"componentType":5126,"count":280,"max":[1,1,0.74219828844070435,1],"min":[-0.74373972415924072,-0.68140286207199097,-0.92306208610534668,-1],"type":"VEC4"},{"bufferView":0,"byteOffset":1872,"componentType":5125,"count":468,"max":[279],"min":[0],"type":"SCALAR"},{"bufferView":2,"byteOffset":13920,"componentType":5126,"count":40,"max":[1.652163028717041,0.12458200007677078,0.63921701908111572],"min":[1.0034170150756836,0.04379500076174736,-0.63921701908111572],"type":"VEC3"},{"bufferView":2,"byteOffset":14400,"componentType":5126,"count":40,"max":[0.47510117292404175,1,0.99680787324905396],"min":[0,-1,-0.99680787324905396],"type":"VEC3"},{"bufferView":1,"byteOffset":9280,"componentType":5126,"count":40,"max":[1.2363120317459106,0.97051000595092773],"min":[-0.25024798512458801,0.01168499980121851],"type":"VEC2"},{"bufferView":1,"byteOffset":9600,"componentType":5126,"count":40,"max":[0.9960939884185791,0.56933599710464478],"min":[0.81152302026748657,0.3789060115814209],"type":"VEC2"},{"bufferView":3,"byteOffset":9280,"componentType":5126,"count":40,"max":[1,0,1.9250055629527196e-06,1],"min":[0.87993121147155762,-0.47510114312171936,-2.2018602976459078e-06,-1],"type":"VEC4"},{"bufferView":0,"byteOffset":3744,"componentType":5125,"count":60,"max":[39],"min":[0],"type":"SCALAR"},{"bufferView":2,"byteOffset":14880,"componentType":5126,"count":588,"max":[0.32751300930976868,0.27948999404907227,0.32751300930976868],"min":[-0.32751300930976868,-0.27948999404907227,-0.32751300930976868],"type":"VEC3"},{"bufferView":2,"byteOffset":21936,"componentType":5126,"count":588,"max":[0.92483609914779663,1,0.92483609914779663],"min":[-0.92483609914779663,-1,-0.92483609914779663],"type":"VEC3"},{"bufferView":1,"byteOffset":9920,"componentType":5126,"count":588,"max":[1.0315959453582764,1.0315959453582764],"min":[-0.013698999769985676,-0.013698999769985676],"type":"VEC2"},{"bufferView":1,"byteOffset":14624,"componentType":5126,"count":588,"max":[0.99452400207519531,0.3361549973487854],"min":[0.6002659797668457,0.0057319998741149902],"type":"VEC2"},{"bufferView":3,"byteOffset":9920,"componentType":5126,"count":588,"max":[1,1,0.74219828844070435,1],"min":[-0.74373972415924072,-0.70493292808532715,-0.92306214570999146,-1],"type":"VEC4"},{"bufferView":0,"byteOffset":3984,"componentType":5125,"count":1380,"max":[587],"min":[0],"type":"SCALAR"}],"asset":{"generator":"Sketchfab (OSG glTF plugin)","version":"2.0"},"bufferViews":[{"buffer":0,"byteLength":9504,"byteOffset":0,"name":"ScalarBufferView","target":34962},{"buffer":0,"byteLength":19328,"byteOffset":9504,"byteStride":8,"name":"Vec2BufferView","target":34962},{"buffer":0,"byteLength":28992,"byteOffset":28832,"byteStride":12,"name":"Vec3BufferView","target":34962},{"buffer":0,"byteLength":19328,"byteOffset":57824,"byteStride":16,"name":"Vec4BufferView","target":34962}],"buffers":[{"byteLength":77152,"uri":"scene.bin"}],"images":[{"uri":"textures\/entry_4__entry_4_Nor_baseColor.jpg"},{"uri":"textures\/entry_4__entry_4_Nor_metallicRoughness.png"},{"uri":"textures\/entry_4__entry_4_Nor_normal.png"}],"materials":[{"doubleSided":true,"emissiveFactor":[0,0,0],"name":"entry_4__entry_4_Nor","normalTexture":{"index":2,"scale":1,"texCoord":1},"occlusionTexture":{"index":1,"strength":0.87,"texCoord":1},"pbrMetallicRoughness":{"baseColorFactor":[0.89000000000000001,0.89000000000000001,0.89000000000000001,1],"baseColorTexture":{"index":0,"texCoord":0},"metallicFactor":0.73999999999999999,"metallicRoughnessTexture":{"index":1,"texCoord":0},"roughnessFactor":0.41000000000000003}}],"meshes":[{"name":"entry_4","primitives":[{"attributes":{"NORMAL":1,"POSITION":0,"TANGENT":4,"TEXCOORD_0":2,"TEXCOORD_1":3},"indices":5,"material":0,"mode":4}]},{"name":"entry_4_door","primitives":[{"attributes":{"NORMAL":7,"POSITION":6,"TANGENT":10,"TEXCOORD_0":8,"TEXCOORD_1":9},"indices":11,"material":0,"mode":4}]},{"name":"entry_4_looker","primitives":[{"attributes":{"NORMAL":13,"POSITION":12,"TANGENT":16,"TEXCOORD_0":14,"TEXCOORD_1":15},"indices":17,"material":0,"mode":4}]},{"name":"entry_4_rad","primitives":[{"attributes":{"NORMAL":19,"POSITION":18,"TANGENT":22,"TEXCOORD_0":20,"TEXCOORD_1":21},"indices":23,"material":0,"mode":4}]}],"nodes":[{"children":[1],"name":"RootNode (gltf orientation matrix)","rotation":[-0.70710678118654746,-0,-0,0.70710678118654757]},{"children":[2],"name":"RootNode (model correction matrix)"},{"children":[3],"matrix":[1,0,0,0,0,0,1,0,0,-1,0,0,0,0,0,1],"name":"f0bcc7f0fb50450eae90f9257df51df4.fbx"},{"children":[4],"name":""},{"children":[5,13],"name":"RootNode"},{"children":[6,7],"matrix":[1,0,0,0,0,-1.6291842253046696e-07,-0.99999999999998679,0,0,0.99999999999998679,-1.6291842253046696e-07,0,0,0,0,1],"name":"entry_4"},{"mesh":0,"name":"entry_4"},{"children":[8,9,11],"matrix":[1,0,0,0,0,1,0,0,0,0,1,0,-0.67041414976119995,0.99395203590393066,-0.011869598180055618,1],"name":"entry_4_door"},{"mesh":1,"name":"entry_4_door"},{"children":[10],"matrix":[1,0,0,0,0,1,-2.646977960169688e-23,0,0,2.646977960169688e-23,1,0,0,0,0,1],"name":"entry_4_looker"},{"mesh":2,"name":"entry_4_looker"},{"children":[12],"matrix":[1,0,0,0,0,0.99999999999999989,1.3435882634675154e-08,0,0,-1.3435882634675154e-08,0.99999999999999989,0,0.91084921360015869,-0.071628272533416748,-1.1175870895385742e-08,1],"name":"entry_4_rad"},{"mesh":3,"name":"entry_4_rad"},{"children":[14],"matrix":[0.57606165693238531,0.80263331624250278,-0.15470205903567405,0,-0.76844390253675854,0.46725008581420963,-0.43723129662846016,0,-0.27865187182680268,0.3707520612728763,0.88594358928169492,0,-2.4024062156677246,1.4629250764846802,-1.8416393995285034,1],"name":"Hemi"},{"children":[15],"matrix":[1,0,0,0,0,2.2204460492503131e-16,1,0,0,-1,2.2204460492503131e-16,0,0,0,0,1],"name":""},{"name":""}],"samplers":[{"magFilter":9729,"minFilter":9987,"wrapS":10497,"wrapT":10497}],"scene":0,"scenes":[{"name":"OSG_Scene","nodes":[0]}],"textures":[{"sampler":0,"source":0},{"sampler":0,"source":1},{"sampler":0,"source":2}]}
